<?xml version="1.0" encoding="utf-8"?>
<!-- Generator: Adobe Illustrator 20.1.0, SVG Export Plug-In . SVG Version: 6.00 Build 0)  -->
<svg version="1.1" id="Layer_1" xmlns="http://www.w3.org/2000/svg" xmlns:xlink="http://www.w3.org/1999/xlink" x="0px" y="0px"
	 viewBox="0 0 595.3 841.9" style="enable-background:new 0 0 595.3 841.9;" xml:space="preserve">
<style type="text/css">
	.st0{fill:#A8403F;stroke:#7C0B0D;stroke-width:4;stroke-miterlimit:10;}
	.st1{fill:url(#SVGID_1_);stroke:url(#SVGID_2_);stroke-width:4;stroke-miterlimit:10;}
	.st2{fill:url(#SVGID_3_);stroke:url(#SVGID_4_);stroke-width:4;stroke-miterlimit:10;}
	.st3{fill:url(#path4506_6_);stroke:#5E0000;stroke-width:2;}
	.st4{fill:url(#circle4508_6_);}
	.st5{fill:url(#circle4794_6_);}
	.st6{fill:url(#circle4796_6_);}
	.st7{fill:url(#circle4824_6_);}
	.st8{fill:url(#path4506_7_);}
	.st9{fill:url(#circle4508_7_);}
	.st10{fill:url(#circle4794_7_);}
	.st11{fill:url(#circle4796_7_);}
	.st12{fill:url(#circle4824_7_);}
	.st13{fill:url(#path4506_8_);stroke:#080808;stroke-width:1.9844;}
	.st14{fill:url(#circle4508_8_);}
	.st15{fill:url(#circle4794_8_);}
	.st16{fill:url(#circle4796_8_);}
	.st17{fill:#E3E3E3;}
	.st18{fill:url(#circle4824_8_);}
	.st19{fill:url(#path5662_1_);stroke:#331A0E;stroke-width:0.6836;stroke-linejoin:round;}
	.st20{fill:url(#path5664_1_);stroke:#331A0E;stroke-width:0.6836;stroke-linejoin:round;}
	.st21{fill:#EC7B23;}
	.st22{fill:#F47D20;}
	.st23{opacity:0.3;enable-background:new    ;}
	.st24{fill:url(#SVGID_5_);}
	.st25{fill:url(#SVGID_6_);}
	.st26{fill:#F58120;}
	.st27{fill:url(#SVGID_7_);}
	.st28{fill:#F78C20;}
	.st29{fill:url(#SVGID_8_);}
	.st30{opacity:0.75;enable-background:new    ;}
	.st31{fill:url(#SVGID_9_);}
	.st32{opacity:0.5;enable-background:new    ;}
	.st33{fill:url(#SVGID_10_);}
	.st34{fill:url(#SVGID_11_);}
	.st35{fill:url(#path4506_9_);stroke:#080808;stroke-width:1.9844;}
	.st36{fill:url(#circle4508_9_);}
	.st37{fill:url(#circle4794_9_);}
	.st38{fill:url(#circle4796_9_);}
	.st39{fill:url(#circle4824_9_);}
	.st40{fill:url(#path4506_10_);}
	.st41{fill:url(#circle4508_10_);}
	.st42{fill:url(#circle4794_10_);}
	.st43{fill:url(#circle4796_10_);}
	.st44{fill:url(#circle4824_10_);}
	.st45{fill:#D71635;}
	.st46{fill:#A70A25;}
	.st47{fill:#BA102C;}
	.st48{fill:#94021D;}
	.st49{fill:#B10D28;}
</style>
<circle class="st0" cx="106.8" cy="107.2" r="67.5"/>
<linearGradient id="SVGID_1_" gradientUnits="userSpaceOnUse" x1="225.5" y1="165.5833" x2="225.5" y2="83.4167" gradientTransform="matrix(-1 0 0 -1 332.3333 231.6667)">
	<stop  offset="0" style="stop-color:#450E00;stop-opacity:0.5"/>
	<stop  offset="0.4433" style="stop-color:#863031;stop-opacity:0.75"/>
	<stop  offset="1" style="stop-color:#B03731"/>
</linearGradient>
<linearGradient id="SVGID_2_" gradientUnits="userSpaceOnUse" x1="131.75" y1="56.5" x2="217.9167" y2="56.5" gradientTransform="matrix(-6.123234e-17 -1 1 -6.123234e-17 50.3333 282)">
	<stop  offset="0" style="stop-color:#B03731"/>
	<stop  offset="8.949532e-02" style="stop-color:#A33532"/>
	<stop  offset="0.2455" style="stop-color:#923232"/>
	<stop  offset="0.4061" style="stop-color:#893031"/>
	<stop  offset="0.5773" style="stop-color:#863031"/>
	<stop  offset="1" style="stop-color:#450E00"/>
</linearGradient>
<circle class="st1" cx="106.8" cy="107.2" r="41.1"/>
<linearGradient id="SVGID_3_" gradientUnits="userSpaceOnUse" x1="225.5" y1="151.3483" x2="225.5" y2="97.6517" gradientTransform="matrix(-1 0 0 -1 332.3333 231.6667)">
	<stop  offset="0" style="stop-color:#450E00;stop-opacity:0.5"/>
	<stop  offset="0.4433" style="stop-color:#863031;stop-opacity:0.75"/>
	<stop  offset="1" style="stop-color:#B03731"/>
</linearGradient>
<linearGradient id="SVGID_4_" gradientUnits="userSpaceOnUse" x1="145.985" y1="56.5" x2="203.6817" y2="56.5" gradientTransform="matrix(-6.123234e-17 -1 1 -6.123234e-17 50.3333 282)">
	<stop  offset="0" style="stop-color:#B03731"/>
	<stop  offset="8.949532e-02" style="stop-color:#A33532"/>
	<stop  offset="0.2455" style="stop-color:#923232"/>
	<stop  offset="0.4061" style="stop-color:#893031"/>
	<stop  offset="0.5773" style="stop-color:#863031"/>
	<stop  offset="1" style="stop-color:#450E00"/>
</linearGradient>
<circle class="st2" cx="106.8" cy="107.2" r="26.8"/>
<g>
	
		<linearGradient id="path4506_6_" gradientUnits="userSpaceOnUse" x1="30.3386" y1="542.0181" x2="30.0759" y2="596.4833" gradientTransform="matrix(3.7795 0 0 -3.7795 19.4567 2495.1338)">
		<stop  offset="0" style="stop-color:#8B0018"/>
		<stop  offset="1" style="stop-color:#D71635"/>
	</linearGradient>
	<circle id="path4506" class="st3" cx="133.7" cy="355.2" r="92.7"/>
	
		<linearGradient id="circle4508_6_" gradientUnits="userSpaceOnUse" x1="30.222" y1="563.5133" x2="30.222" y2="583.1479" gradientTransform="matrix(3.7795 0 0 -3.7795 19.4567 2495.1338)">
		<stop  offset="0" style="stop-color:#9E0621"/>
		<stop  offset="1" style="stop-color:#9E0621"/>
	</linearGradient>
	<circle id="circle4508" class="st4" cx="133.7" cy="355.2" r="65.8"/>
	
		<linearGradient id="circle4794_6_" gradientUnits="userSpaceOnUse" x1="30.1859" y1="555.288" x2="30.3073" y2="591.9432" gradientTransform="matrix(3.7795 0 0 -3.7795 19.4567 2495.1338)">
		<stop  offset="0" style="stop-color:#700008"/>
		<stop  offset="1" style="stop-color:#C4122F"/>
	</linearGradient>
	<circle id="circle4794" class="st5" cx="133.7" cy="355.2" r="63.4"/>
	
		<linearGradient id="circle4796_6_" gradientUnits="userSpaceOnUse" x1="30.21" y1="558.6122" x2="30.266" y2="593.9445" gradientTransform="matrix(3.7795 0 0 -3.7795 19.4567 2495.1338)">
		<stop  offset="0" style="stop-color:#79000E"/>
		<stop  offset="1" style="stop-color:#9E0621"/>
	</linearGradient>
	<circle id="circle4796" class="st6" cx="133.7" cy="355.2" r="55.5"/>
	
		<linearGradient id="circle4824_6_" gradientUnits="userSpaceOnUse" x1="30.2405" y1="560.3898" x2="30.1248" y2="596.588" gradientTransform="matrix(3.7795 0 0 -3.7795 19.4567 2495.1338)">
		<stop  offset="0" style="stop-color:#670001"/>
		<stop  offset="1" style="stop-color:#C4122F"/>
	</linearGradient>
	<circle id="circle4824" class="st7" cx="133.7" cy="355.2" r="50.3"/>
</g>
<g>
	
		<linearGradient id="path4506_7_" gradientUnits="userSpaceOnUse" x1="87.6391" y1="667.987" x2="87.3764" y2="722.4521" gradientTransform="matrix(3.7795 0 0 -3.7795 19.4567 2495.1338)">
		<stop  offset="0" style="stop-color:#8B0018"/>
		<stop  offset="1" style="stop-color:#D71635"/>
	</linearGradient>
	<circle id="path4506_1_" class="st8" cx="350.3" cy="-120.9" r="92.7"/>
	
		<linearGradient id="circle4508_7_" gradientUnits="userSpaceOnUse" x1="87.5225" y1="689.4822" x2="87.5225" y2="709.1168" gradientTransform="matrix(3.7795 0 0 -3.7795 19.4567 2495.1338)">
		<stop  offset="0" style="stop-color:#9E0621"/>
		<stop  offset="1" style="stop-color:#9E0621"/>
	</linearGradient>
	<circle id="circle4508_1_" class="st9" cx="350.3" cy="-120.9" r="65.8"/>
	
		<linearGradient id="circle4794_7_" gradientUnits="userSpaceOnUse" x1="87.4865" y1="681.257" x2="87.6078" y2="717.912" gradientTransform="matrix(3.7795 0 0 -3.7795 19.4567 2495.1338)">
		<stop  offset="0" style="stop-color:#700008"/>
		<stop  offset="1" style="stop-color:#C4122F"/>
	</linearGradient>
	<circle id="circle4794_1_" class="st10" cx="350.3" cy="-120.9" r="63.4"/>
	
		<linearGradient id="circle4796_7_" gradientUnits="userSpaceOnUse" x1="87.5105" y1="684.5811" x2="87.5666" y2="719.9133" gradientTransform="matrix(3.7795 0 0 -3.7795 19.4567 2495.1338)">
		<stop  offset="0" style="stop-color:#79000E"/>
		<stop  offset="1" style="stop-color:#9E0621"/>
	</linearGradient>
	<circle id="circle4796_1_" class="st11" cx="350.3" cy="-120.9" r="55.5"/>
	
		<linearGradient id="circle4824_7_" gradientUnits="userSpaceOnUse" x1="87.5411" y1="686.3586" x2="87.4253" y2="722.5569" gradientTransform="matrix(3.7795 0 0 -3.7795 19.4567 2495.1338)">
		<stop  offset="0" style="stop-color:#670001"/>
		<stop  offset="1" style="stop-color:#C4122F"/>
	</linearGradient>
	<circle id="circle4824_1_" class="st12" cx="350.3" cy="-120.9" r="50.3"/>
</g>
<g>
	
		<linearGradient id="path4506_8_" gradientUnits="userSpaceOnUse" x1="107.3631" y1="578.8939" x2="107.0991" y2="633.634" gradientTransform="matrix(3.7795 0 0 -3.7795 19.4567 2495.1338)">
		<stop  offset="0" style="stop-color:#F9F9FA"/>
		<stop  offset="1" style="stop-color:#EEEDEE"/>
	</linearGradient>
	<circle id="path4506_2_" class="st13" cx="424.8" cy="215.4" r="93.1"/>
	
		<linearGradient id="circle4508_8_" gradientUnits="userSpaceOnUse" x1="107.246" y1="600.4976" x2="107.246" y2="620.2313" gradientTransform="matrix(3.7795 0 0 -3.7795 19.4567 2495.1338)">
		<stop  offset="0" style="stop-color:#FFFFFF"/>
		<stop  offset="1" style="stop-color:#E0E1E0"/>
	</linearGradient>
	<circle id="circle4508_2_" class="st14" cx="424.8" cy="215.4" r="66.1"/>
	
		<linearGradient id="circle4794_8_" gradientUnits="userSpaceOnUse" x1="107.2097" y1="592.2308" x2="107.3317" y2="629.071" gradientTransform="matrix(3.7795 0 0 -3.7795 19.4567 2495.1338)">
		<stop  offset="0" style="stop-color:#F5F6F6"/>
		<stop  offset="1" style="stop-color:#E1E2E1"/>
	</linearGradient>
	<circle id="circle4794_2_" class="st15" cx="424.8" cy="215.4" r="63.7"/>
	
		<linearGradient id="circle4796_8_" gradientUnits="userSpaceOnUse" x1="107.2339" y1="595.5718" x2="107.2902" y2="631.0824" gradientTransform="matrix(3.7795 0 0 -3.7795 19.4567 2495.1338)">
		<stop  offset="0" style="stop-color:#FAFBFC"/>
		<stop  offset="1" style="stop-color:#D3D3D3"/>
	</linearGradient>
	<circle id="circle4796_2_" class="st16" cx="424.8" cy="215.4" r="55.7"/>
	<circle id="circle4798" class="st17" cx="424.8" cy="215.4" r="50.6"/>
	
		<linearGradient id="circle4824_8_" gradientUnits="userSpaceOnUse" x1="107.2646" y1="597.3583" x2="107.1483" y2="633.7393" gradientTransform="matrix(3.7795 0 0 -3.7795 19.4567 2495.1338)">
		<stop  offset="0" style="stop-color:#F2F2F2"/>
		<stop  offset="1" style="stop-color:#D8D9D8"/>
	</linearGradient>
	<circle id="circle4824_2_" class="st18" cx="424.8" cy="215.4" r="50.6"/>
	
		<linearGradient id="path5662_1_" gradientUnits="userSpaceOnUse" x1="323.702" y1="532.4155" x2="323.7005" y2="531.4914" gradientTransform="matrix(8.305027e-02 -3.254 -3.254 -8.305027e-02 2174.2388 1313.2952)">
		<stop  offset="0" style="stop-color:#805D25"/>
		<stop  offset="1" style="stop-color:#473114"/>
	</linearGradient>
	<path id="path5662" inkscape:connector-curvature="0" sodipodi:nodetypes="csscc" class="st19" d="M469.8,312.2l4.9-192.1
		c0-0.9-1.6-0.9-1.6,0c-2.7,65.3-7.7,191.9-7.7,191.9L469.8,312.2z"/>
	
		<linearGradient id="path5664_1_" gradientUnits="userSpaceOnUse" x1="326.2569" y1="530.9937" x2="326.3988" y2="529.7313" gradientTransform="matrix(8.305027e-02 -3.254 -3.254 -8.305027e-02 2174.2388 1313.2952)">
		<stop  offset="0" style="stop-color:#9F742B"/>
		<stop  offset="1" style="stop-color:#7F5923"/>
	</linearGradient>
	<path id="path5664" inkscape:connector-curvature="0" sodipodi:nodetypes="csscc" class="st20" d="M478.1,303.8l-5.9-192
		c0-0.9-1.7-0.8-1.6,0.1c1,65.3,3.1,192,3.1,192L478.1,303.8z"/>
	<g id="path5908" inkscape:connector-curvature="0" sodipodi:nodetypes="sssssssss">
		<path class="st21" d="M424.4,162.1l20.2,3.8c2,0.4,3.2,2.3,3,4.4l-2.2,25.7c-0.2,2.1-2.3,3.4-4.4,3l-25.2-4.7
			c-2-0.4-3.6-2.4-3-4.4l7.3-24.8C420.6,163.1,422.4,161.7,424.4,162.1L424.4,162.1z"/>
	</g>
	<g id="path5910" inkscape:connector-curvature="0" sodipodi:nodetypes="sssssssss">
		<path class="st22" d="M420.9,171.5l23.6,4.4c2.4,0.4,3.8,2.4,3.6,4.5l-1.7,25.8c-0.1,2.1-2.6,3.3-5,2.9l-29.5-5.5
			c-2.4-0.4-4.2-2.5-3.6-4.5l7.7-24.7C416.5,172.3,418.5,171,420.9,171.5L420.9,171.5z"/>
	</g>
	<g id="path5912" inkscape:connector-curvature="0" sodipodi:nodetypes="sssssssss">
		<path class="st21" d="M408.9,260.5l14.5,2.7c1.5,0.3,2.8-1.2,3.3-3.2l6.5-24.9c0.5-2-0.5-3.9-2-4.2l-18.2-3.4
			c-1.5-0.3-3.1,1.1-3.3,3.2l-2.9,25.6C406.7,258.4,407.5,260.3,408.9,260.5L408.9,260.5z"/>
	</g>
	<g id="path5914" inkscape:connector-curvature="0" sodipodi:nodetypes="sssssssss" class="st23">
		
			<linearGradient id="SVGID_5_" gradientUnits="userSpaceOnUse" x1="65.5822" y1="588.8225" x2="65.6" y2="583.6376" gradientTransform="matrix(1.7259 0.3224 -0.3224 1.7259 492.953 -776.3973)">
			<stop  offset="0" style="stop-color:#FECB90"/>
			<stop  offset="1" style="stop-color:#FAAC57;stop-opacity:0"/>
		</linearGradient>
		<path class="st24" d="M409.6,260l13.4,2.5c1.4,0.3,2.5-0.3,2.8-1.2l2.7-11.2c0.2-0.9-0.8-1.9-2.1-2.1l-14.7-2.7
			c-1.4-0.3-2.6,0.3-2.8,1.2l-1.4,11.5C407.4,258.8,408.3,259.7,409.6,260L409.6,260z"/>
	</g>
	<g id="path5916" inkscape:connector-curvature="0" sodipodi:nodetypes="sssssssss">
		<path class="st22" d="M407.6,250.2l20.8,3.9c2.1,0.4,3.9-1,4.5-3l7.3-24.8c0.6-2-1-4-3.1-4.4l-26-4.9c-2.1-0.4-4.3,0.9-4.5,3
			l-2.1,25.7C404.3,247.9,405.5,249.8,407.6,250.2z"/>
	</g>
	<g id="path5918" inkscape:connector-curvature="0" sodipodi:nodetypes="sssssssss" class="st23">
		
			<linearGradient id="SVGID_6_" gradientUnits="userSpaceOnUse" x1="32.8072" y1="621.7301" x2="32.825" y2="616.5453" gradientTransform="matrix(2.6293 0.4912 -0.4912 2.6293 637.23 -1399.6628)">
			<stop  offset="0" style="stop-color:#FECB90"/>
			<stop  offset="1" style="stop-color:#FAAC57;stop-opacity:0"/>
		</linearGradient>
		<path class="st25" d="M408,249.6l20.5,3.8c2.1,0.4,3.9-0.4,4.2-1.8l4.1-17.1c0.3-1.4-1.2-2.8-3.3-3.2l-22.4-4.2
			c-2.1-0.4-4,0.4-4.2,1.8l-2.2,17.5C404.5,247.8,405.9,249.2,408,249.6z"/>
	</g>
	<g id="path5920" inkscape:connector-curvature="0" sodipodi:nodetypes="sccssccss">
		<path class="st26" d="M417.4,181.1c-2.7-0.5-4.9,0.8-5.6,2.8c-7.1,25.4-5.3,25.7-9.6,51.3c-0.1,2.1,1.5,4.1,4.2,4.6l26.9,5
			c2.7,0.5,4.9-0.8,5.6-2.8c6-25.5,6.2-26,9.6-51.3c0.1-2.1-1.5-4.1-4.2-4.6L417.4,181.1z"/>
	</g>
	<g id="path5922" inkscape:connector-curvature="0" sodipodi:nodetypes="sssssssss" class="st23">
		
			<linearGradient id="SVGID_7_" gradientUnits="userSpaceOnUse" x1="21.3164" y1="634.6483" x2="21.3342" y2="629.4635" gradientTransform="matrix(3.2203 0.6016 -0.6016 3.2203 733.1624 -1815.6902)">
			<stop  offset="0" style="stop-color:#FECB90"/>
			<stop  offset="1" style="stop-color:#FAAC57;stop-opacity:0"/>
		</linearGradient>
		<path class="st27" d="M407.6,238.9l25.1,4.7c2.5,0.5,4.7-0.5,5.1-2.2l5-21c0.4-1.7-1.5-3.5-4-3.9l-27.4-5.1
			c-2.5-0.5-4.9,0.5-5.1,2.2l-2.7,21.4C403.4,236.7,405.1,238.5,407.6,238.9L407.6,238.9z"/>
	</g>
	<g id="path5924" inkscape:connector-curvature="0" sodipodi:nodetypes="sssssssss">
		<path class="st28" d="M413.7,195.5l28.9,5.4c2.9,0.5,4.9,2.5,4.6,4.5l-3.3,24.7c-0.3,2-3,3.1-5.9,2.6l-31.6-5.9
			c-2.9-0.5-5.1-2.6-4.6-4.5l6-24.2C408.3,196.1,410.8,194.9,413.7,195.5L413.7,195.5z"/>
	</g>
	<g id="path5926" inkscape:connector-curvature="0" sodipodi:nodetypes="sssssssss">
		
			<linearGradient id="SVGID_8_" gradientUnits="userSpaceOnUse" x1="15.4426" y1="692.0204" x2="15.4604" y2="686.8356" gradientTransform="matrix(3.6383 0.6797 0.6797 -3.6383 -98.6594 2706.1147)">
			<stop  offset="0" style="stop-color:#FECB90"/>
			<stop  offset="1" style="stop-color:#FAAC57;stop-opacity:0"/>
		</linearGradient>
		<path class="st29" d="M414,195.8l28.3,5.3c2.9,0.5,4.8,2.5,4.5,4.5l-3.3,24.2c-0.3,2-3,3.1-5.8,2.5l-30.9-5.8
			c-2.9-0.5-5-2.5-4.5-4.5l5.9-23.7C408.6,196.5,411.1,195.3,414,195.8L414,195.8z"/>
	</g>
	<g id="path5928" inkscape:connector-curvature="0" sodipodi:nodetypes="sssssssss" class="st30">
		
			<linearGradient id="SVGID_9_" gradientUnits="userSpaceOnUse" x1="18.7043" y1="688.6381" x2="18.722" y2="683.4532" gradientTransform="matrix(3.3937 0.634 0.634 -3.3937 -69.5183 2509.7585)">
			<stop  offset="0" style="stop-color:#FECB90"/>
			<stop  offset="1" style="stop-color:#FAAC57;stop-opacity:0"/>
		</linearGradient>
		<path class="st31" d="M417.6,181.8l26.4,4.9c2.7,0.5,4.5,2.3,4.2,4.2l-3,22.5c-0.2,1.8-2.8,2.9-5.4,2.4l-28.9-5.4
			c-2.7-0.5-4.7-2.4-4.2-4.2l5.5-22.1C412.6,182.4,414.9,181.3,417.6,181.8L417.6,181.8z"/>
	</g>
	<g id="path5930" inkscape:connector-curvature="0" sodipodi:nodetypes="sssssssss" class="st32">
		
			<linearGradient id="SVGID_10_" gradientUnits="userSpaceOnUse" x1="25.3278" y1="687.1888" x2="25.3456" y2="682.004" gradientTransform="matrix(2.986 0.5578 0.5578 -2.986 -26.6075 2212.7842)">
			<stop  offset="0" style="stop-color:#FECB90"/>
			<stop  offset="1" style="stop-color:#FAAC57;stop-opacity:0"/>
		</linearGradient>
		<path class="st33" d="M421,172.5l23.2,4.3c2.3,0.4,3.9,2,3.7,3.7l-2.7,19.8c-0.2,1.6-2.4,2.5-4.8,2.1l-25.4-4.7
			c-2.3-0.4-4.1-2.1-3.7-3.7l4.8-19.4C416.6,173,418.6,172.1,421,172.5L421,172.5z"/>
	</g>
	<g id="path5932" inkscape:connector-curvature="0" sodipodi:nodetypes="sssssssss" class="st32">
		
			<linearGradient id="SVGID_11_" gradientUnits="userSpaceOnUse" x1="36.6741" y1="685.5902" x2="36.6918" y2="680.4053" gradientTransform="matrix(2.4764 0.4626 0.4626 -2.4764 26.2658 1845.6621)">
			<stop  offset="0" style="stop-color:#FECB90"/>
			<stop  offset="1" style="stop-color:#FAAC57;stop-opacity:0"/>
		</linearGradient>
		<path class="st34" d="M424.8,162.8l19.3,3.6c1.9,0.4,3.3,1.7,3.1,3l-2.2,16.4c-0.2,1.3-2,2.1-4,1.7l-21.1-3.9
			c-1.9-0.4-3.4-1.7-3.1-3l4-16.1C421.2,163.2,422.9,162.4,424.8,162.8L424.8,162.8z"/>
	</g>
</g>
<g>
	
		<linearGradient id="path4506_9_" gradientUnits="userSpaceOnUse" x1="215.5245" y1="511.7359" x2="214.9575" y2="629.2864" gradientTransform="matrix(3.7795 0 0 -3.7795 19.4567 2495.1338)">
		<stop  offset="0" style="stop-color:#F9F9FA"/>
		<stop  offset="1" style="stop-color:#EEEDEE"/>
	</linearGradient>
	<circle id="path4506_3_" class="st35" cx="833.1" cy="363.9" r="200"/>
	
		<linearGradient id="circle4508_9_" gradientUnits="userSpaceOnUse" x1="215.2729" y1="558.1282" x2="215.2729" y2="600.5051" gradientTransform="matrix(3.7795 0 0 -3.7795 19.4567 2495.1338)">
		<stop  offset="0" style="stop-color:#FFFFFF"/>
		<stop  offset="1" style="stop-color:#E0E1E0"/>
	</linearGradient>
	<circle id="circle4508_3_" class="st36" cx="833.1" cy="363.9" r="141.9"/>
	
		<linearGradient id="circle4794_9_" gradientUnits="userSpaceOnUse" x1="215.195" y1="540.376" x2="215.4569" y2="619.4877" gradientTransform="matrix(3.7795 0 0 -3.7795 19.4567 2495.1338)">
		<stop  offset="0" style="stop-color:#F5F6F6"/>
		<stop  offset="1" style="stop-color:#E1E2E1"/>
	</linearGradient>
	<circle id="circle4794_3_" class="st37" cx="833.1" cy="363.9" r="136.9"/>
	
		<linearGradient id="circle4796_9_" gradientUnits="userSpaceOnUse" x1="215.247" y1="547.5504" x2="215.3679" y2="623.807" gradientTransform="matrix(3.7795 0 0 -3.7795 19.4567 2495.1338)">
		<stop  offset="0" style="stop-color:#FAFBFC"/>
		<stop  offset="1" style="stop-color:#D3D3D3"/>
	</linearGradient>
	<circle id="circle4796_3_" class="st38" cx="833.1" cy="363.9" r="119.7"/>
	<circle id="circle4798_1_" class="st17" cx="833.1" cy="363.9" r="108.6"/>
	
		<linearGradient id="circle4824_9_" gradientUnits="userSpaceOnUse" x1="215.3129" y1="551.3869" x2="215.0632" y2="629.5125" gradientTransform="matrix(3.7795 0 0 -3.7795 19.4567 2495.1338)">
		<stop  offset="0" style="stop-color:#F2F2F2"/>
		<stop  offset="1" style="stop-color:#D8D9D8"/>
	</linearGradient>
	<circle id="circle4824_3_" class="st39" cx="833.1" cy="363.9" r="108.6"/>
</g>
<g>
	
		<linearGradient id="path4506_10_" gradientUnits="userSpaceOnUse" x1="94.1194" y1="443.7178" x2="93.5524" y2="561.2684" gradientTransform="matrix(3.7795 0 0 -3.7795 19.4567 2495.1338)">
		<stop  offset="0" style="stop-color:#8B0018"/>
		<stop  offset="1" style="stop-color:#D71635"/>
	</linearGradient>
	<circle id="path4506_4_" class="st40" cx="374.2" cy="620.9" r="200"/>
	
		<linearGradient id="circle4508_10_" gradientUnits="userSpaceOnUse" x1="93.8678" y1="490.1102" x2="93.8678" y2="532.4871" gradientTransform="matrix(3.7795 0 0 -3.7795 19.4567 2495.1338)">
		<stop  offset="0" style="stop-color:#9E0621"/>
		<stop  offset="1" style="stop-color:#9E0621"/>
	</linearGradient>
	<circle id="circle4508_4_" class="st41" cx="374.2" cy="620.9" r="141.9"/>
	
		<linearGradient id="circle4794_10_" gradientUnits="userSpaceOnUse" x1="93.7899" y1="472.3579" x2="94.0518" y2="551.4697" gradientTransform="matrix(3.7795 0 0 -3.7795 19.4567 2495.1338)">
		<stop  offset="0" style="stop-color:#700008"/>
		<stop  offset="1" style="stop-color:#C4122F"/>
	</linearGradient>
	<circle id="circle4794_4_" class="st42" cx="374.2" cy="620.9" r="136.9"/>
	
		<linearGradient id="circle4796_10_" gradientUnits="userSpaceOnUse" x1="93.8418" y1="479.5323" x2="93.9628" y2="555.789" gradientTransform="matrix(3.7795 0 0 -3.7795 19.4567 2495.1338)">
		<stop  offset="0" style="stop-color:#79000E"/>
		<stop  offset="1" style="stop-color:#9E0621"/>
	</linearGradient>
	<circle id="circle4796_4_" class="st43" cx="374.2" cy="620.9" r="119.7"/>
	
		<linearGradient id="circle4824_10_" gradientUnits="userSpaceOnUse" x1="93.9078" y1="483.3688" x2="93.658" y2="561.4944" gradientTransform="matrix(3.7795 0 0 -3.7795 19.4567 2495.1338)">
		<stop  offset="0" style="stop-color:#670001"/>
		<stop  offset="1" style="stop-color:#C4122F"/>
	</linearGradient>
	<circle id="circle4824_4_" class="st44" cx="374.2" cy="620.9" r="108.6"/>
</g>
<g>
	<circle id="path4506_5_" class="st45" cx="-302.6" cy="684.1" r="200"/>
	<circle id="circle4508_5_" class="st46" cx="-302.6" cy="684.1" r="141.9"/>
	<circle id="circle4794_5_" class="st47" cx="-302.6" cy="684.1" r="136.9"/>
	<circle id="circle4796_5_" class="st48" cx="-302.6" cy="684.1" r="119.7"/>
	<circle id="circle4824_5_" class="st49" cx="-302.6" cy="684.1" r="108.6"/>
</g>
</svg>
