<?xml version="1.0" encoding="UTF-8" standalone="no"?>
<!-- Generator: Adobe Illustrator 20.1.0, SVG Export Plug-In . SVG Version: 6.00 Build 0)  -->

<svg
   xmlns:dc="http://purl.org/dc/elements/1.1/"
   xmlns:cc="http://creativecommons.org/ns#"
   xmlns:rdf="http://www.w3.org/1999/02/22-rdf-syntax-ns#"
   xmlns:svg="http://www.w3.org/2000/svg"
   xmlns="http://www.w3.org/2000/svg"
   xmlns:sodipodi="http://sodipodi.sourceforge.net/DTD/sodipodi-0.dtd"
   xmlns:inkscape="http://www.inkscape.org/namespaces/inkscape"
   version="1.1"
   id="Layer_1"
   x="0px"
   y="0px"
   viewBox="0 0 256 256"
   xml:space="preserve"
   sodipodi:docname="customer.svg"
   width="256"
   height="256"
   inkscape:export-filename="C:\Users\dawid\OneDrive\Desktop\customer_1.png"
   inkscape:export-xdpi="96"
   inkscape:export-ydpi="96"
   inkscape:version="0.92.2 (5c3e80d, 2017-08-06)"><metadata
     id="metadata549"><rdf:RDF><cc:Work
         rdf:about=""><dc:format>image/svg+xml</dc:format><dc:type
           rdf:resource="http://purl.org/dc/dcmitype/StillImage" /><dc:title /></cc:Work></rdf:RDF></metadata><defs
     id="defs547" /><sodipodi:namedview
     pagecolor="#ffffff"
     bordercolor="#666666"
     borderopacity="1"
     objecttolerance="10"
     gridtolerance="10"
     guidetolerance="10"
     inkscape:pageopacity="0"
     inkscape:pageshadow="2"
     inkscape:window-width="1858"
     inkscape:window-height="1057"
     id="namedview545"
     showgrid="false"
     inkscape:zoom="2.3666667"
     inkscape:cx="193.73008"
     inkscape:cy="102.82265"
     inkscape:window-x="54"
     inkscape:window-y="-8"
     inkscape:window-maximized="1"
     inkscape:current-layer="Layer_1" /><style
     type="text/css"
     id="style2">
	.st0{fill:#393C47;stroke:#000000;stroke-miterlimit:10;}
	.st1{fill:#C97D3F;stroke:#000000;stroke-miterlimit:10;}
	.st2{fill:none;stroke:#000000;stroke-miterlimit:10;}
	.st3{fill:#593B20;stroke:#000000;stroke-miterlimit:10;}
	.st4{stroke:#000000;stroke-miterlimit:10;}
	.st5{fill:#F9F9F9;stroke:#000000;stroke-miterlimit:10;}
	.st6{fill:#F9F9F9;}
	.st7{fill:#160900;}
	.st8{fill:#471900;}
	.st9{fill:#301300;}
	.st10{fill:#1E0C00;}
	.st11{fill:url(#SVGID_1_);stroke:#1C1E23;stroke-miterlimit:10;}
	.st12{fill:url(#SVGID_2_);stroke:#1C1E23;stroke-miterlimit:10;}
	.st13{fill:url(#SVGID_3_);stroke:#4C1700;stroke-miterlimit:10;}
	.st14{fill:url(#SVGID_4_);stroke:url(#SVGID_5_);stroke-miterlimit:10;}
	.st15{fill:url(#SVGID_6_);stroke:url(#SVGID_7_);stroke-miterlimit:10;}
	.st16{fill:#160700;stroke:#000000;stroke-miterlimit:10;}
	.st17{fill:#FFFFFF;}
	.st18{fill:#66421B;}
	.st19{fill:url(#SVGID_8_);stroke:#160900;stroke-miterlimit:10;}
	.st20{fill:url(#SVGID_9_);stroke:#332013;stroke-miterlimit:10;}
	.st21{fill:url(#SVGID_10_);stroke:#332013;stroke-miterlimit:10;}
	.st22{fill:url(#SVGID_11_);stroke:#2D0606;stroke-miterlimit:10;}
	.st23{fill:url(#SVGID_12_);stroke:#2D0606;stroke-miterlimit:10;}
	.st24{fill:url(#SVGID_13_);stroke:#202D1C;stroke-miterlimit:10;}
	.st25{fill:url(#SVGID_14_);stroke:url(#SVGID_15_);stroke-miterlimit:10;}
	.st26{fill:url(#SVGID_16_);stroke:url(#SVGID_17_);stroke-miterlimit:10;}
	.st27{fill:#0025FF;stroke:#000000;stroke-miterlimit:10;}
	.st28{fill:#BF6426;}
	.st29{fill:url(#SVGID_18_);stroke:#5E5A0F;stroke-miterlimit:10;}
	.st30{fill:url(#SVGID_19_);stroke:#5E5A0F;stroke-miterlimit:10;}
	.st31{fill:url(#SVGID_20_);stroke:#5E5A0F;stroke-miterlimit:10;}
	.st32{fill:url(#SVGID_21_);stroke:#5E5A0F;stroke-miterlimit:10;}
	.st33{fill:url(#SVGID_22_);stroke:#5E5A0F;stroke-miterlimit:10;}
	.st34{fill:url(#SVGID_23_);stroke:#5E5A0F;stroke-miterlimit:10;}
	.st35{fill:url(#SVGID_24_);stroke:#5E5A0F;stroke-miterlimit:10;}
	.st36{fill:url(#SVGID_25_);stroke:#202D1C;stroke-miterlimit:10;}
	.st37{fill:url(#SVGID_26_);stroke:#202D1C;stroke-miterlimit:10;}
</style><path
     class="st0"
     d="m 155.5,-137.1 6.1,-1.7 c 4.2,-1.1 7.1,-5 7.1,-9.3 v -23.6 c 0,-1.7 -1.5,-3.1 -3.2,-2.9 l -25.3,2.4 c -1.8,0.2 -3,1.9 -2.6,3.7 l 6.7,25 c 1.3,4.8 6.3,7.7 11.2,6.4 z"
     id="path4"
     inkscape:connector-curvature="0"
     style="fill:#393c47;stroke:#000000;stroke-miterlimit:10" /><path
     class="st0"
     d="m 109.7,-137.1 -6.1,-1.7 c -4.2,-1.1 -7.1,-5 -7.1,-9.3 v -23.6 c 0,-1.7 1.5,-3.1 3.2,-2.9 l 25.3,2.4 c 1.8,0.2 3,1.9 2.6,3.7 l -6.7,25 c -1.3,4.8 -6.3,7.7 -11.2,6.4 z"
     id="path6"
     inkscape:connector-curvature="0"
     style="fill:#393c47;stroke:#000000;stroke-miterlimit:10" /><path
     class="st1"
     d="m 201.5,-193.3 c 0,16.1 -30.6,34.3 -68.3,34.3 -37.7,0 -68.2,-18.1 -68.2,-34.3 0,-16.2 30.6,-29.2 68.3,-29.2 37.7,0 68.2,13.1 68.2,29.2 z"
     id="path8"
     inkscape:connector-curvature="0"
     style="fill:#c97d3f;stroke:#000000;stroke-miterlimit:10" /><path
     class="st2"
     d="M 139.3,-138.2"
     id="path10"
     inkscape:connector-curvature="0"
     style="fill:none;stroke:#000000;stroke-miterlimit:10" /><path
     class="st2"
     d="M 138.4,-143.2"
     id="path12"
     inkscape:connector-curvature="0"
     style="fill:none;stroke:#000000;stroke-miterlimit:10" /><path
     class="st2"
     d="M 138.8,-138.2"
     id="path14"
     inkscape:connector-curvature="0"
     style="fill:none;stroke:#000000;stroke-miterlimit:10" /><path
     class="st2"
     d="M 109.5,-170.5"
     id="path16"
     inkscape:connector-curvature="0"
     style="fill:none;stroke:#000000;stroke-miterlimit:10" /><path
     class="st2"
     d="M 123.9,-160.5"
     id="path18"
     inkscape:connector-curvature="0"
     style="fill:none;stroke:#000000;stroke-miterlimit:10" /><path
     class="st2"
     d="M 122.7,-143.2"
     id="path20"
     inkscape:connector-curvature="0"
     style="fill:none;stroke:#000000;stroke-miterlimit:10" /><path
     class="st2"
     d="M 123.9,-160.5"
     id="path22"
     inkscape:connector-curvature="0"
     style="fill:none;stroke:#000000;stroke-miterlimit:10" /><path
     class="st2"
     d="M 126.2,-138.2"
     id="path24"
     inkscape:connector-curvature="0"
     style="fill:none;stroke:#000000;stroke-miterlimit:10" /><path
     class="st2"
     d="M 122.7,-143.2"
     id="path26"
     inkscape:connector-curvature="0"
     style="fill:none;stroke:#000000;stroke-miterlimit:10" /><path
     class="st2"
     d="M 126.7,-138.2"
     id="path28"
     inkscape:connector-curvature="0"
     style="fill:none;stroke:#000000;stroke-miterlimit:10" /><path
     class="st2"
     d="M 132.8,-134.3"
     id="path30"
     inkscape:connector-curvature="0"
     style="fill:none;stroke:#000000;stroke-miterlimit:10" /><path
     class="st2"
     d="M 122.7,-143.2"
     id="path32"
     inkscape:connector-curvature="0"
     style="fill:none;stroke:#000000;stroke-miterlimit:10" /><g
     id="g42"
     transform="translate(0,-304)"><path
       class="st3"
       d="m 181.8,125.7 c -1.4,3.9 -4.7,6.2 -7.3,5.3 -0.4,-0.2 -0.8,-0.4 -1.1,-0.7 C 166.6,146 151,157 132.8,157 114.6,157 99,146 92.2,130.3 c -0.3,0.3 -0.7,0.5 -1.1,0.7 -2.7,0.9 -5.9,-1.4 -7.3,-5.3 -1.4,-3.9 -0.3,-7.8 2.3,-8.7 0.9,-0.3 1.8,-0.3 2.7,0.1 -0.1,-1.4 -0.2,-2.8 -0.2,-4.3 0,-24.4 19.8,-44.3 44.3,-44.3 24.5,0 44.1,19.8 44.1,44.3 0,1.5 -0.1,2.9 -0.2,4.3 0.9,-0.3 1.8,-0.4 2.7,-0.1 2.7,0.9 3.7,4.8 2.3,8.7 z"
       id="path34"
       inkscape:connector-curvature="0"
       style="fill:#593b20;stroke:#000000;stroke-miterlimit:10" /><path
       class="st3"
       d="m 109.5,126.9 c 8,0 18.8,4.5 18.8,10 0,8.5 -0.4,15.6 -1,17 -0.2,0.4 -2.9,4 -2.5,4.2 6.3,4.8 2.8,4.8 8,4.8 5.2,0 1.7,-0.1 8,-4.8 0.4,-0.3 -2.3,-3.8 -2.5,-4.2 -0.6,-1.4 -1,-8.5 -1,-17 0,-5.5 10.8,-10 18.8,-10"
       id="path36"
       inkscape:connector-curvature="0"
       style="fill:#593b20;stroke:#000000;stroke-miterlimit:10" /><circle
       class="st4"
       cx="146"
       cy="138.3"
       r="3.4000001"
       id="circle38"
       style="stroke:#000000;stroke-miterlimit:10" /><circle
       class="st4"
       cx="119.3"
       cy="138.3"
       r="3.4000001"
       id="circle40"
       style="stroke:#000000;stroke-miterlimit:10" /></g><path
     class="st5"
     d="m 335.7,-180.3 c -1.4,3.9 -4.7,6.2 -7.3,5.3 -0.4,-0.2 -0.8,-0.4 -1.1,-0.7 -6.8,15.7 -22.4,26.7 -40.6,26.7 -18.2,0 -33.8,-11 -40.6,-26.7 -0.3,0.3 -0.7,0.5 -1.1,0.7 -2.7,0.9 -5.9,-1.4 -7.3,-5.3 -1.4,-3.9 -0.3,-7.8 2.3,-8.7 0.9,-0.3 1.8,-0.3 2.7,0.1 -0.1,-1.4 -0.2,-2.8 -0.2,-4.3 0,-24.4 19.8,-44.3 44.2,-44.3 24.4,0 44.3,19.8 44.3,44.3 0,1.5 -0.1,2.9 -0.2,4.3 0.9,-0.3 1.8,-0.4 2.7,-0.1 2.6,0.9 3.6,4.8 2.2,8.7 z"
     id="path44"
     inkscape:connector-curvature="0"
     style="fill:#f9f9f9;stroke:#000000;stroke-miterlimit:10" /><g
     id="g50"
     transform="translate(0,-304)"><g
       id="g48"><path
         class="st6"
         d="m 306.5,106.4 c 1.2,0 3,-1.8 1.1,-1.8 -1.3,0 -3.1,1.8 -1.1,1.8 z"
         id="path46"
         inkscape:connector-curvature="0"
         style="fill:#f9f9f9" /></g></g><g
     id="g56"
     transform="translate(0,-304)"><g
       id="g54"><path
         class="st6"
         d="m 266.6,127.8 c 1,0 3.1,-1.6 1.2,-1.6 -1.1,0 -3.2,1.6 -1.2,1.6 z"
         id="path52"
         inkscape:connector-curvature="0"
         style="fill:#f9f9f9" /></g></g><path
     class="st2"
     d="M 282.8,-214.8"
     id="path58"
     inkscape:connector-curvature="0"
     style="fill:none;stroke:#000000;stroke-miterlimit:10" /><path
     class="st2"
     d="M 267.2,-177"
     id="path60"
     inkscape:connector-curvature="0"
     style="fill:none;stroke:#000000;stroke-miterlimit:10" /><path
     class="st2"
     d="M 321.8,-179.5"
     id="path62"
     inkscape:connector-curvature="0"
     style="fill:none;stroke:#000000;stroke-miterlimit:10" /><path
     class="st2"
     d="M 307,-198.5"
     id="path64"
     inkscape:connector-curvature="0"
     style="fill:none;stroke:#000000;stroke-miterlimit:10" /><path
     class="st7"
     d="m 178.3,-187.8 c -0.3,0.3 -2.7,2.9 -2.8,3.3 -0.4,3.2 -1.5,15.1 -2.6,14 -1.1,-1.2 -2.4,-17.7 -6.3,-20.7 v 0 c -0.3,-0.3 -0.7,-0.4 -1,-0.4 -4.5,-0.5 -26.5,-6.3 -32.8,-4 -6.4,-2.3 -28.3,3.5 -32.8,4 -0.4,0 -0.7,0.2 -1,0.4 v 0 c -3.9,3 -5.3,19.5 -6.3,20.7 -1,1.1 -2.2,-10.8 -2.6,-14 0,-0.4 -2.5,-3 -2.8,-3.3 -0.8,-0.9 -1.3,-4.1 -1,-21.8 0,-1.6 0.8,-2.7 1.6,-3.4 0.6,-0.5 1.5,-0.4 1.9,0.2 0.4,0.6 1.1,1.1 1.9,0.8 1.5,-0.5 6.1,-13.7 8,-18.4 0.3,-0.8 0.9,-1.6 1.6,-2.3 l 0.2,-0.2 c 0.1,-0.1 0.2,-0.2 0.3,-0.3 3.8,-3.2 11.4,-5 18.4,-5.7 0,0 0,0 0,0 0.5,0 1,-0.1 1.5,-0.1 4.3,-0.3 8.2,-0.3 10.7,0.1 0.1,0 0.1,0 0.2,0 0.1,0 0.3,0 0.4,0 0.4,-0.1 0.9,-0.1 1.4,-0.2 v 0 c 2.8,-0.3 6.8,-0.2 11,0.2 0,0 0,0 0,0 6.2,0.6 12.8,2.1 16.9,4.7 0.5,0.3 1,0.7 1.5,1.1 1,0.8 1.7,1.7 2.1,2.8 1.9,4.7 6.5,17.9 8,18.4 0.9,0.3 1.5,-0.2 1.9,-0.8 0.5,-0.6 1.4,-0.8 1.9,-0.2 0.8,0.7 1.6,1.8 1.6,3.4 0.3,17.7 -0.2,20.8 -1,21.7 z"
     id="path66"
     inkscape:connector-curvature="0"
     style="fill:#160900" /><path
     class="st8"
     d="m 166.6,-191.2 c -0.3,-0.3 -0.7,-0.4 -1,-0.4 -4.5,-0.5 -26.5,-6.3 -32.8,-4 -6.4,-2.3 -28.3,3.5 -32.8,4 -0.4,0 -0.7,0.2 -1,0.4 l 6.5,-14.4 v 0 c 8.2,-1.3 23.4,-2.5 27.3,-1.4 3.9,-1.1 19.2,0.1 27.3,1.4 v 0 z"
     id="path68"
     inkscape:connector-curvature="0"
     style="fill:#471900" /><path
     class="st9"
     d="m 162.2,-234 -3.9,28.5 c -7.7,-1.1 -22.9,-2.2 -26.6,-1.2 -3.7,-1 -18,0.1 -25.7,1.2 l -4.5,-27.2 c 0.1,-0.1 0.2,-0.2 0.3,-0.3 3.8,-3.2 11.4,-5 18.4,-5.7 0,0 0,0 0,0 0.5,0 1,-0.1 1.5,-0.1 4.3,-0.3 8.2,-0.3 10.7,0.1 0.1,0 0.1,0 0.2,0 0.1,0 0.3,0 0.4,0 0.4,-0.1 0.9,-0.1 1.4,-0.2 v 0 c 2.8,-0.3 6.8,-0.2 11,0.2 0,0 0,0 0,0 6.1,0.6 12.8,2.1 16.8,4.7 z"
     id="path70"
     inkscape:connector-curvature="0"
     style="fill:#301300" /><path
     class="st10"
     d="m 99.4,-191.1 c -0.1,0 -0.3,0 -0.4,0.1 l -7.3,-20.8 c 1.8,-2.5 5.8,-13.7 7.5,-17.9 0.4,-1 1.1,-1.9 2.1,-2.8 0.1,-0.1 0.3,-0.2 0.4,-0.3 l 4.8,27.4 z"
     id="path72"
     inkscape:connector-curvature="0"
     style="fill:#1e0c00" /><path
     class="st10"
     d="m 158.6,-205.5 4,-27.4 c 0.1,0.1 0.3,0.2 0.4,0.3 1,0.8 1.7,1.7 2.1,2.8 1.9,4.6 6.5,17.8 8,18.4 0.1,0 0.1,0 0.2,0 l -7.2,20.7 c -0.4,-0.3 -0.7,-0.5 -1.1,-0.5 z"
     id="path74"
     inkscape:connector-curvature="0"
     style="fill:#1e0c00" /><g
     id="g260"
     transform="matrix(1.4837584,0,0,1.4837584,-862.23589,-84.607481)"><g
       id="g224"><g
         id="g205"><linearGradient
           id="SVGID_1_"
           gradientUnits="userSpaceOnUse"
           x1="812.00171"
           y1="-308.56549"
           x2="812.00171"
           y2="-270.77121"
           gradientTransform="translate(-319.9861,462.2137)"><stop
             offset="0"
             style="stop-color:#393C47"
             id="stop76" /><stop
             offset="8.194343e-02"
             style="stop-color:#424557"
             id="stop78" /><stop
             offset="0.2019"
             style="stop-color:#4B4D66"
             id="stop80" /><stop
             offset="0.3401"
             style="stop-color:#50526F"
             id="stop82" /><stop
             offset="0.5369"
             style="stop-color:#525472"
             id="stop84" /><stop
             offset="0.8135"
             style="stop-color:#4C4F5E"
             id="stop86" /><stop
             offset="1"
             style="stop-color:#4A4D56"
             id="stop88" /></linearGradient><path
           class="st11"
           d="m 494.4,191.1 6.1,-1.7 c 4.2,-1.1 7.1,-5 7.1,-9.3 v -23.6 c 0,-1.7 -1.5,-3.1 -3.2,-2.9 l -25.3,2.4 c -1.8,0.2 -3,1.9 -2.6,3.7 l 6.7,25 c 1.4,4.9 6.4,7.7 11.2,6.4 z"
           id="path91"
           inkscape:connector-curvature="0"
           style="fill:url(#SVGID_1_);stroke:#1c1e23;stroke-miterlimit:10" /><linearGradient
           id="SVGID_2_"
           gradientUnits="userSpaceOnUse"
           x1="771.00171"
           y1="-308.56549"
           x2="771.00171"
           y2="-270.77121"
           gradientTransform="translate(-319.9861,462.2137)"><stop
             offset="0"
             style="stop-color:#393C47"
             id="stop93" /><stop
             offset="8.194343e-02"
             style="stop-color:#424557"
             id="stop95" /><stop
             offset="0.2019"
             style="stop-color:#4B4D66"
             id="stop97" /><stop
             offset="0.3401"
             style="stop-color:#50526F"
             id="stop99" /><stop
             offset="0.5369"
             style="stop-color:#525472"
             id="stop101" /><stop
             offset="0.8135"
             style="stop-color:#4C4F5E"
             id="stop103" /><stop
             offset="1"
             style="stop-color:#4A4D56"
             id="stop105" /></linearGradient><path
           class="st12"
           d="m 448.6,191.1 -6.1,-1.7 c -4.2,-1.1 -7.1,-5 -7.1,-9.3 v -23.6 c 0,-1.7 1.5,-3.1 3.2,-2.9 L 464,156 c 1.8,0.2 3,1.9 2.6,3.7 l -6.7,25 c -1.4,4.9 -6.4,7.7 -11.3,6.4 z"
           id="path108"
           inkscape:connector-curvature="0"
           style="fill:url(#SVGID_2_);stroke:#1c1e23;stroke-miterlimit:10" /><linearGradient
           id="SVGID_3_"
           gradientUnits="userSpaceOnUse"
           x1="792.14948"
           y1="-352.60989"
           x2="792.14948"
           y2="-291.5134"
           gradientTransform="translate(-319.9861,462.2137)"><stop
             offset="0"
             style="stop-color:#862D00"
             id="stop110" /><stop
             offset="1.791274e-02"
             style="stop-color:#8D3002"
             id="stop112" /><stop
             offset="9.731201e-02"
             style="stop-color:#AA3C0A"
             id="stop114" /><stop
             offset="0.1829"
             style="stop-color:#BF4610"
             id="stop116" /><stop
             offset="0.2764"
             style="stop-color:#CF4D15"
             id="stop118" /><stop
             offset="0.3839"
             style="stop-color:#D85117"
             id="stop120" /><stop
             offset="0.5369"
             style="stop-color:#DB5218"
             id="stop122" /><stop
             offset="0.5725"
             style="stop-color:#DE5518"
             id="stop124" /><stop
             offset="0.8301"
             style="stop-color:#EE6A18"
             id="stop126" /><stop
             offset="1"
             style="stop-color:#F47218"
             id="stop128" /></linearGradient><path
           class="st13"
           d="m 540.4,137.7 c 0,15.5 -30.6,33 -68.3,33 -37.7,0 -68.3,-17.4 -68.3,-33 0,-15.6 30.6,-28.1 68.3,-28.1 37.7,0 68.3,12.6 68.3,28.1 z"
           id="path131"
           inkscape:connector-curvature="0"
           style="fill:url(#SVGID_3_);stroke:#4c1700;stroke-miterlimit:10" /><g
           id="g203"><linearGradient
             id="SVGID_4_"
             gradientUnits="userSpaceOnUse"
             x1="791.50171"
             y1="-367.1134"
             x2="791.50171"
             y2="-278.6134"
             gradientTransform="translate(-319.9861,462.2137)"><stop
               offset="0"
               style="stop-color:#43220B"
               id="stop133" /><stop
               offset="0.2457"
               style="stop-color:#563112"
               id="stop135" /><stop
               offset="0.74"
               style="stop-color:#865925"
               id="stop137" /><stop
               offset="1"
               style="stop-color:#A27030"
               id="stop139" /></linearGradient><linearGradient
             id="SVGID_5_"
             gradientUnits="userSpaceOnUse"
             x1="791.50171"
             y1="-367.6134"
             x2="791.50171"
             y2="-278.1134"
             gradientTransform="translate(-319.9861,462.2137)"><stop
               offset="0"
               style="stop-color:#000000;stop-opacity:0.9"
               id="stop142" /><stop
               offset="0.4428"
               style="stop-color:#130700;stop-opacity:0.9443"
               id="stop144" /><stop
               offset="1"
               style="stop-color:#301100"
               id="stop146" /></linearGradient><path
             class="st14"
             d="m 520.6,152.3 c -1.4,3.9 -4.7,6.2 -7.3,5.3 -0.4,-0.2 -0.8,-0.4 -1.1,-0.7 -6.8,15.7 -22.4,26.7 -40.6,26.7 -18.2,0 -33.8,-11 -40.6,-26.7 -0.3,0.3 -0.7,0.5 -1.1,0.7 -2.7,0.9 -5.9,-1.4 -7.3,-5.3 -1.4,-3.9 -0.3,-7.8 2.3,-8.7 0.9,-0.3 1.8,-0.3 2.7,0.1 -0.1,-1.4 -0.2,-2.8 -0.2,-4.3 0,-24.4 19.8,-44.3 44.3,-44.3 24.5,0 44.3,19.8 44.3,44.3 0,1.5 -0.1,2.9 -0.2,4.3 0.9,-0.3 1.8,-0.4 2.7,-0.1 2.4,0.9 3.5,4.8 2.1,8.7 z"
             id="path149"
             inkscape:connector-curvature="0"
             style="fill:url(#SVGID_4_);stroke:url(#SVGID_5_);stroke-miterlimit:10" /><linearGradient
             id="SVGID_6_"
             gradientUnits="userSpaceOnUse"
             x1="791.54858"
             y1="-308.66019"
             x2="791.54858"
             y2="-272.53519"
             gradientTransform="translate(-319.9861,462.2137)"><stop
               offset="0"
               style="stop-color:#A27030;stop-opacity:0"
               id="stop151" /><stop
               offset="6.070248e-02"
               style="stop-color:#996529;stop-opacity:0.1131"
               id="stop153" /><stop
               offset="0.1862"
               style="stop-color:#8B561E;stop-opacity:0.3468"
               id="stop155" /><stop
               offset="0.3309"
               style="stop-color:#834D18;stop-opacity:0.6163"
               id="stop157" /><stop
               offset="0.5369"
               style="stop-color:#814A16"
               id="stop159" /><stop
               offset="0.6989"
               style="stop-color:#966226"
               id="stop161" /><stop
               offset="0.8774"
               style="stop-color:#A87533"
               id="stop163" /><stop
               offset="1"
               style="stop-color:#AE7C38"
               id="stop165" /></linearGradient><linearGradient
             id="SVGID_7_"
             gradientUnits="userSpaceOnUse"
             x1="791.54858"
             y1="-309.16019"
             x2="791.54858"
             y2="-272.03519"
             gradientTransform="translate(-319.9861,462.2137)"><stop
               offset="0"
               style="stop-color:#724822"
               id="stop168" /><stop
               offset="0.2112"
               style="stop-color:#6E4520"
               id="stop170" /><stop
               offset="0.4256"
               style="stop-color:#623B1C"
               id="stop172" /><stop
               offset="0.6414"
               style="stop-color:#4D2A14"
               id="stop174" /><stop
               offset="0.857"
               style="stop-color:#311309"
               id="stop176" /><stop
               offset="1"
               style="stop-color:#1A0000"
               id="stop178" /></linearGradient><path
             class="st15"
             d="m 448.3,153.6 c 8,0 18.8,4.5 18.8,10 0,8.5 -0.4,15.6 -1,17 -0.2,0.4 -2.9,4 -2.5,4.2 6.3,4.8 2.8,4.8 8,4.8 5.2,0 1.7,-0.1 8,-4.8 0.4,-0.3 -2.3,-3.8 -2.5,-4.2 -0.6,-1.4 -1,-8.5 -1,-17 0,-5.5 10.8,-10 18.8,-10"
             id="path181"
             inkscape:connector-curvature="0"
             style="fill:url(#SVGID_6_);stroke:url(#SVGID_7_);stroke-miterlimit:10" /><g
             id="g189"><circle
               class="st16"
               cx="484.79999"
               cy="164.8"
               r="3.4000001"
               id="circle183"
               style="fill:#160700;stroke:#000000;stroke-miterlimit:10" /><circle
               class="st17"
               cx="486.10001"
               cy="163.60001"
               r="0.89999998"
               id="circle185"
               style="fill:#ffffff" /><circle
               class="st17"
               cx="487"
               cy="164.60001"
               r="0.30000001"
               id="circle187"
               style="fill:#ffffff" /></g><g
             id="g197"><circle
               class="st16"
               cx="458.10001"
               cy="164.89999"
               r="3.4000001"
               id="circle191"
               style="fill:#160700;stroke:#000000;stroke-miterlimit:10" /><circle
               class="st17"
               cx="459.39999"
               cy="163.60001"
               r="0.89999998"
               id="circle193"
               style="fill:#ffffff" /><circle
               class="st17"
               cx="460.29999"
               cy="164.60001"
               r="0.30000001"
               id="circle195"
               style="fill:#ffffff" /></g><path
             class="st18"
             d="m 429.5,154.2 c -0.2,0.1 -0.4,0.3 -0.7,0.3 -1.6,0.5 -3.4,-0.9 -4,-3.1 -0.7,-2.2 0.1,-4.4 1.7,-4.8 0.7,-0.2 1.5,0 2.2,0.5 -0.6,0.6 -1,1.5 -1.2,2.5 -0.5,2.2 0.4,4.2 2,4.6 z"
             id="path199"
             inkscape:connector-curvature="0"
             style="fill:#66421b" /><path
             class="st18"
             d="m 513.7,154.2 c 0.2,0.1 0.4,0.3 0.7,0.3 1.6,0.5 3.4,-0.9 4,-3.1 0.7,-2.2 -0.1,-4.4 -1.7,-4.8 -0.7,-0.2 -1.5,0 -2.2,0.5 0.6,0.6 1,1.5 1.2,2.5 0.4,2.2 -0.5,4.2 -2,4.6 z"
             id="path201"
             inkscape:connector-curvature="0"
             style="fill:#66421b" /></g></g><linearGradient
         id="SVGID_8_"
         gradientUnits="userSpaceOnUse"
         x1="791.54858"
         y1="-370.23959"
         x2="791.54858"
         y2="-301.63531"
         gradientTransform="translate(-319.9861,462.2137)"><stop
           offset="0"
           style="stop-color:#613918"
           id="stop207" /><stop
           offset="6.512217e-02"
           style="stop-color:#5C351A"
           id="stop209" /><stop
           offset="0.2597"
           style="stop-color:#532E1E"
           id="stop211" /><stop
           offset="0.5369"
           style="stop-color:#502C1F"
           id="stop213" /><stop
           offset="0.7034"
           style="stop-color:#371710"
           id="stop215" /><stop
           offset="0.8821"
           style="stop-color:#220604"
           id="stop217" /><stop
           offset="1"
           style="stop-color:#1A0000"
           id="stop219" /></linearGradient><path
         class="st19"
         d="m 517.1,143.3 c -0.3,0.3 -2.7,2.9 -2.8,3.3 -0.4,3.2 -1.5,15.1 -2.6,14 -1.1,-1.2 -2.5,-17.7 -6.3,-20.7 v 0 c -0.3,-0.3 -0.7,-0.4 -1,-0.4 -4.5,-0.5 -26.5,-6.3 -32.8,-4 -6.4,-2.3 -28.4,3.5 -32.9,4 -0.4,0 -0.7,0.2 -1,0.4 v 0 c -3.9,3 -5.3,19.5 -6.3,20.7 -1,1.1 -2.2,-10.8 -2.6,-14 0,-0.4 -2.5,-3 -2.8,-3.3 -0.8,-0.9 -1.3,-4.1 -0.9,-21.8 0,-1.6 0.8,-2.7 1.6,-3.4 0.6,-0.5 1.5,-0.4 1.9,0.2 0.4,0.6 1.1,1.1 1.9,0.8 1.2,-0.4 4.4,-9 6.6,-14.7 0.5,-1.4 1,-2.7 1.4,-3.6 0.3,-0.8 0.9,-1.6 1.6,-2.3 l 0.2,-0.2 c 0.1,-0.1 0.2,-0.2 0.3,-0.3 3.8,-3.2 11.4,-5 18.3,-5.7 0,0 0,0 0,0 0.5,-0.1 1,-0.1 1.5,-0.1 4.3,-0.4 8.2,-0.3 10.7,0.1 0.1,0 0.2,0 0.2,0 0.1,0 0.3,0 0.4,0 0.4,-0.1 0.9,-0.1 1.4,-0.2 v 0 c 2.8,-0.3 6.8,-0.2 11,0.2 0,0 0,0 0,0 6.2,0.6 12.8,2.1 16.9,4.7 0.5,0.3 1,0.7 1.5,1.1 1,0.8 1.7,1.7 2.1,2.8 0.3,0.9 0.8,2.1 1.3,3.4 2.2,5.8 5.5,14.5 6.7,15 0.9,0.3 1.5,-0.2 1.9,-0.8 0.5,-0.6 1.4,-0.8 1.9,-0.2 0.8,0.7 1.6,1.8 1.6,3.4 0.5,17.5 -0.1,20.7 -0.9,21.6 z"
         id="path222"
         inkscape:connector-curvature="0"
         style="fill:url(#SVGID_8_);stroke:#160900;stroke-miterlimit:10" /></g><linearGradient
       id="SVGID_9_"
       gradientUnits="userSpaceOnUse"
       x1="782.04352"
       y1="-324.03021"
       x2="782.04352"
       y2="-316.13101"
       gradientTransform="matrix(0.9987,0.0509921,-0.0509921,0.9987,-312.558,434.3978)"><stop
         offset="0"
         style="stop-color:#613918"
         id="stop226" /><stop
         offset="6.512217e-02"
         style="stop-color:#5C351A"
         id="stop228" /><stop
         offset="0.2597"
         style="stop-color:#532E1E"
         id="stop230" /><stop
         offset="0.5369"
         style="stop-color:#502C1F"
         id="stop232" /><stop
         offset="0.7034"
         style="stop-color:#371710"
         id="stop234" /><stop
         offset="0.8821"
         style="stop-color:#220604"
         id="stop236" /><stop
         offset="1"
         style="stop-color:#1A0000"
         id="stop238" /></linearGradient><path
       class="st20"
       d="m 475.6,157 0.2,-4 c 0,-0.6 0.5,-1 1.1,-1.1 l 15.9,-0.9 c 0.9,0 1.5,0.9 1,1.7 -0.5,0.8 -1,1.6 -1.1,1.6 -0.2,0 -11.6,2.8 -15.7,3.8 -0.7,0.2 -1.4,-0.4 -1.4,-1.1 z"
       id="path241"
       inkscape:connector-curvature="0"
       style="fill:url(#SVGID_9_);stroke:#332013;stroke-miterlimit:10" /><linearGradient
       id="SVGID_10_"
       gradientUnits="userSpaceOnUse"
       x1="251.9368"
       y1="-296.96371"
       x2="251.9368"
       y2="-289.06451"
       gradientTransform="matrix(-0.9987,0.0509921,0.0509921,0.9987,724.5784,434.3978)"><stop
         offset="0"
         style="stop-color:#613918"
         id="stop243" /><stop
         offset="6.512217e-02"
         style="stop-color:#5C351A"
         id="stop245" /><stop
         offset="0.2597"
         style="stop-color:#532E1E"
         id="stop247" /><stop
         offset="0.5369"
         style="stop-color:#502C1F"
         id="stop249" /><stop
         offset="0.7034"
         style="stop-color:#371710"
         id="stop251" /><stop
         offset="0.8821"
         style="stop-color:#220604"
         id="stop253" /><stop
         offset="1"
         style="stop-color:#1A0000"
         id="stop255" /></linearGradient><path
       class="st21"
       d="m 467.2,157 -0.2,-4 c 0,-0.6 -0.5,-1 -1.1,-1.1 L 450,151 c -0.9,0 -1.5,0.9 -1,1.7 0.5,0.8 1,1.6 1.1,1.6 0.2,0 11.6,2.8 15.7,3.8 0.7,0.2 1.4,-0.4 1.4,-1.1 z"
       id="path258"
       inkscape:connector-curvature="0"
       style="fill:url(#SVGID_10_);stroke:#332013;stroke-miterlimit:10" /></g><linearGradient
     id="SVGID_11_"
     gradientUnits="userSpaceOnUse"
     x1="971.76611"
     y1="-311.78079"
     x2="971.76611"
     y2="-273.98651"
     gradientTransform="matrix(2,0,0,2,-1201.8952,481.56979)"><stop
       offset="0"
       style="stop-color:#FF2220"
       id="stop262" /><stop
       offset="1.791274e-02"
       style="stop-color:#FF2926"
       id="stop264" /><stop
       offset="9.731201e-02"
       style="stop-color:#FF463D"
       id="stop266" /><stop
       offset="0.1829"
       style="stop-color:#FF5B4F"
       id="stop268" /><stop
       offset="0.2764"
       style="stop-color:#FF6B5B"
       id="stop270" /><stop
       offset="0.3839"
       style="stop-color:#FF7463"
       id="stop272" /><stop
       offset="0.5369"
       style="stop-color:#FF7765"
       id="stop274" /><stop
       offset="0.6254"
       style="stop-color:#FF6153"
       id="stop276" /><stop
       offset="0.7835"
       style="stop-color:#FF3F37"
       id="stop278" /><stop
       offset="0.9141"
       style="stop-color:#FF2A26"
       id="stop280" /><stop
       offset="1"
       style="stop-color:#FF2220"
       id="stop282" /></linearGradient><linearGradient
     id="SVGID_12_"
     gradientUnits="userSpaceOnUse"
     x1="937.2373"
     y1="-311.78079"
     x2="937.2373"
     y2="-273.98651"
     gradientTransform="matrix(2,0,0,2,-1201.8952,481.56979)"><stop
       offset="0"
       style="stop-color:#FF2220"
       id="stop287" /><stop
       offset="1.791274e-02"
       style="stop-color:#FF2926"
       id="stop289" /><stop
       offset="9.731201e-02"
       style="stop-color:#FF463D"
       id="stop291" /><stop
       offset="0.1829"
       style="stop-color:#FF5B4F"
       id="stop293" /><stop
       offset="0.2764"
       style="stop-color:#FF6B5B"
       id="stop295" /><stop
       offset="0.3839"
       style="stop-color:#FF7463"
       id="stop297" /><stop
       offset="0.5369"
       style="stop-color:#FF7765"
       id="stop299" /><stop
       offset="0.6254"
       style="stop-color:#FF6153"
       id="stop301" /><stop
       offset="0.7835"
       style="stop-color:#FF3F37"
       id="stop303" /><stop
       offset="0.9141"
       style="stop-color:#FF2A26"
       id="stop305" /><stop
       offset="1"
       style="stop-color:#FF2220"
       id="stop307" /></linearGradient><linearGradient
     id="SVGID_13_"
     gradientUnits="userSpaceOnUse"
     x1="955.14948"
     y1="-345.75821"
     x2="955.14948"
     y2="-298.3652"
     gradientTransform="matrix(2,0,0,2,-1201.8952,481.56979)"><stop
       offset="0"
       style="stop-color:#33360C"
       id="stop312" /><stop
       offset="1.429028e-02"
       style="stop-color:#354211"
       id="stop314" /><stop
       offset="7.038032e-02"
       style="stop-color:#3B6A21"
       id="stop316" /><stop
       offset="0.13"
       style="stop-color:#408D2F"
       id="stop318" /><stop
       offset="0.1928"
       style="stop-color:#44A93B"
       id="stop320" /><stop
       offset="0.2598"
       style="stop-color:#48BF44"
       id="stop322" /><stop
       offset="0.333"
       style="stop-color:#4ACF4A"
       id="stop324" /><stop
       offset="0.4172"
       style="stop-color:#4CD84E"
       id="stop326" /><stop
       offset="0.5369"
       style="stop-color:#4CDB4F"
       id="stop328" /><stop
       offset="0.687"
       style="stop-color:#5EC65A"
       id="stop330" /><stop
       offset="0.8755"
       style="stop-color:#70B164"
       id="stop332" /><stop
       offset="1"
       style="stop-color:#77A968"
       id="stop334" /></linearGradient><linearGradient
     id="SVGID_14_"
     gradientUnits="userSpaceOnUse"
     x1="954.50171"
     y1="-367.1134"
     x2="954.50171"
     y2="-278.6134"
     gradientTransform="matrix(2,0,0,2,-1201.8952,481.56979)"><stop
       offset="0"
       style="stop-color:#DB7845"
       id="stop339" /><stop
       offset="0.5532"
       style="stop-color:#ED8B4F"
       id="stop341" /><stop
       offset="1"
       style="stop-color:#FF9D59"
       id="stop343" /></linearGradient><linearGradient
     id="SVGID_15_"
     gradientUnits="userSpaceOnUse"
     x1="954.50171"
     y1="-367.6134"
     x2="954.50171"
     y2="-278.1134"
     gradientTransform="matrix(2,0,0,2,-1201.8952,481.56979)"><stop
       offset="0"
       style="stop-color:#000000;stop-opacity:0.9"
       id="stop346" /><stop
       offset="0.355"
       style="stop-color:#130606;stop-opacity:0.9355"
       id="stop348" /><stop
       offset="1"
       style="stop-color:#3E1415"
       id="stop350" /></linearGradient><linearGradient
     id="SVGID_16_"
     gradientUnits="userSpaceOnUse"
     x1="954.50171"
     y1="-308.92151"
     x2="954.50171"
     y2="-275.21371"
     gradientTransform="matrix(2,0,0,2,-1201.8952,481.56979)"><stop
       offset="0"
       style="stop-color:#A27030;stop-opacity:0"
       id="stop355" /><stop
       offset="3.487539e-02"
       style="stop-color:#B17537;stop-opacity:6.495142e-02"
       id="stop357" /><stop
       offset="0.1117"
       style="stop-color:#CE7F45;stop-opacity:0.208"
       id="stop359" /><stop
       offset="0.1944"
       style="stop-color:#E3874F;stop-opacity:0.3621"
       id="stop361" /><stop
       offset="0.2849"
       style="stop-color:#F38C56;stop-opacity:0.5306"
       id="stop363" /><stop
       offset="0.3889"
       style="stop-color:#FC8F5B;stop-opacity:0.7243"
       id="stop365" /><stop
       offset="0.5369"
       style="stop-color:#FF905C"
       id="stop367" /><stop
       offset="0.695"
       style="stop-color:#FF965B"
       id="stop369" /><stop
       offset="1"
       style="stop-color:#FF9D59"
       id="stop371" /></linearGradient><linearGradient
     id="SVGID_17_"
     gradientUnits="userSpaceOnUse"
     x1="954.50171"
     y1="-309.42151"
     x2="954.50171"
     y2="-274.71371"
     gradientTransform="matrix(2,0,0,2,-1201.8952,481.56979)"><stop
       offset="0"
       style="stop-color:#FF7A43"
       id="stop374" /><stop
       offset="0.1635"
       style="stop-color:#FB7842"
       id="stop376" /><stop
       offset="0.3295"
       style="stop-color:#EF723E"
       id="stop378" /><stop
       offset="0.4967"
       style="stop-color:#DA6737"
       id="stop380" /><stop
       offset="0.6647"
       style="stop-color:#BE582E"
       id="stop382" /><stop
       offset="0.8324"
       style="stop-color:#994523"
       id="stop384" /><stop
       offset="1"
       style="stop-color:#6D2E15"
       id="stop386" /></linearGradient><linearGradient
     id="SVGID_18_"
     gradientUnits="userSpaceOnUse"
     x1="947.33392"
     y1="-333.19821"
     x2="947.33392"
     y2="-325.13501"
     gradientTransform="matrix(1.9974,0.1019842,-0.1019842,1.9974,-1187.039,425.93799)"><stop
       offset="0"
       style="stop-color:#E7B300"
       id="stop411" /><stop
       offset="0.2979"
       style="stop-color:#EDC609"
       id="stop413" /><stop
       offset="0.8975"
       style="stop-color:#FCF620"
       id="stop415" /><stop
       offset="1"
       style="stop-color:#FFFF24"
       id="stop417" /></linearGradient><linearGradient
     id="SVGID_19_"
     gradientUnits="userSpaceOnUse"
     x1="931.1192"
     y1="-332.24881"
     x2="931.1192"
     y2="-324.18561"
     gradientTransform="matrix(-1.9974,0.1019842,0.1019842,1.9974,2568.2198,425.93799)"><stop
       offset="0"
       style="stop-color:#E7B300"
       id="stop422" /><stop
       offset="0.2979"
       style="stop-color:#EDC609"
       id="stop424" /><stop
       offset="0.8975"
       style="stop-color:#FCF620"
       id="stop426" /><stop
       offset="1"
       style="stop-color:#FFFF24"
       id="stop428" /></linearGradient><g
     id="g5672"
     transform="matrix(0.72004529,0,0,0.72004529,-382.0139,249.25402)"><path
       style="fill:url(#SVGID_11_);stroke:#2d0606;stroke-width:2;stroke-miterlimit:10"
       inkscape:connector-curvature="0"
       id="path285"
       d="m 745.67703,-67.057613 10.2,-3.4 c 7,-2.2 12,-10 12,-18.6 v -47.199997 c 0,-3.4 -2.6,-6.2 -5.4,-5.8 l -42.6,4.8 c -3,0.4 -5.2,3.8 -4.4,7.4 l 11.4,49.999997 c 2.2,9.8 10.6,15.4 18.8,12.8 z"
       class="st22" /><path
       style="fill:url(#SVGID_12_);stroke:#2d0606;stroke-width:2;stroke-miterlimit:10"
       inkscape:connector-curvature="0"
       id="path310"
       d="m 668.47703,-67.057613 -10.2,-3.4 c -7,-2.2 -12,-10 -12,-18.6 v -47.199997 c 0,-3.4 2.6,-6.2 5.4,-5.8 l 42.6,4.8 c 3,0.4 5.2,3.8 4.4,7.4 l -11.4,49.999997 c -2.2,9.8 -10.6,15.4 -18.8,12.8 z"
       class="st23" /><path
       style="fill:url(#SVGID_13_);stroke:#202d1c;stroke-width:2;stroke-miterlimit:10"
       inkscape:connector-curvature="0"
       id="path337"
       d="m 834.67703,-166.25761 c 0,24 -56.6,51.2 -126.4,51.2 -69.8,0 -126.4,-27 -126.4,-51.2 0,-24 56.6,-43.6 126.4,-43.6 70,0 126.4,19.4 126.4,43.6 z"
       class="st24" /><path
       style="fill:url(#SVGID_14_);stroke:url(#SVGID_15_);stroke-width:2;stroke-miterlimit:10"
       inkscape:connector-curvature="0"
       id="path353"
       d="m 805.27703,-138.25761 c -2.8,7.8 -9.4,12.4 -14.6,10.6 -0.8,-0.4 -1.6,-0.8 -2.2,-1.4 -13.6,31.399997 -44.8,53.399997 -81.2,53.399997 -36.4,0 -67.6,-22 -81.2,-53.399997 -0.6,0.6 -1.4,1 -2.2,1.4 -5.4,1.8 -11.8,-2.8 -14.6,-10.6 -2.8,-7.8 -0.6,-15.6 4.6,-17.4 1.8,-0.6 3.6,-0.6 5.4,0.2 -0.2,-2.8 -0.4,-5.6 -0.4,-8.6 0,-48.8 39.6,-88.6 88.6,-88.6 49,0 88.6,39.6 88.6,88.6 0,3 -0.2,5.8 -0.4,8.6 1.8,-0.6 3.6,-0.8 5.4,-0.2 4.8,1.8 7,9.6 4.2,17.4 z"
       class="st25" /><path
       style="fill:url(#SVGID_16_);stroke:url(#SVGID_17_);stroke-width:2;stroke-miterlimit:10"
       inkscape:connector-curvature="0"
       id="path389"
       d="m 660.67703,-136.05761 c 16,0 28.4,-1.2 37.6,20 6.8,15.6 -0.8,31.199997 -2,33.999997 -0.4,0.8 -6,8.4 -5,8.4 9.2,0.2 5.6,4.6 16,4.6 10.2,0 7,-3.8 16,-4.6 1,0 -4.6,-7.6 -5,-8.4 -1.2,-2.8 -7.2,-17.8 -2,-33.999997 7.4,-23.6 21.6,-20 37.6,-20"
       class="st26" /><g
       transform="matrix(2,0,0,2,-561.92297,-442.85761)"
       id="g397"><circle
         style="fill:#0025ff;stroke:#000000;stroke-miterlimit:10"
         id="circle391"
         r="3.4000001"
         cy="164.8"
         cx="647.79999"
         class="st27" /><circle
         style="fill:#ffffff"
         id="circle393"
         r="0.89999998"
         cy="163.60001"
         cx="649.09998"
         class="st17" /><circle
         style="fill:#ffffff"
         id="circle395"
         r="0.30000001"
         cy="164.60001"
         cx="650"
         class="st17" /></g><g
       transform="matrix(2,0,0,2,-561.92297,-442.85761)"
       id="g405"><circle
         style="fill:#0025ff;stroke:#000000;stroke-miterlimit:10"
         id="circle399"
         r="3.4000001"
         cy="164.89999"
         cx="621.09998"
         class="st27" /><circle
         style="fill:#ffffff"
         id="circle401"
         r="0.89999998"
         cy="163.60001"
         cx="622.40002"
         class="st17" /><circle
         style="fill:#ffffff"
         id="circle403"
         r="0.30000001"
         cy="164.60001"
         cx="623.29999"
         class="st17" /></g><path
       style="fill:#bf6426;stroke-width:2"
       inkscape:connector-curvature="0"
       id="path407"
       d="m 623.07703,-134.45761 c -0.4,0.2 -0.8,0.6 -1.4,0.6 -3.2,1 -6.8,-1.8 -8,-6.2 -1.4,-4.4 0.2,-8.8 3.4,-9.6 1.4,-0.4 3,0 4.4,1 -1.2,1.2 -2,3 -2.4,5 -1,4.4 0.8,8.4 4,9.2 z"
       class="st28" /><path
       style="fill:#bf6426;stroke-width:2"
       inkscape:connector-curvature="0"
       id="path409"
       d="m 791.47703,-134.45761 c 0.4,0.2 0.8,0.6 1.4,0.6 3.2,1 6.8,-1.8 8,-6.2 1.4,-4.4 -0.2,-8.8 -3.4,-9.6 -1.4,-0.4 -3,0 -4.4,1 1.2,1.2 2,3 2.4,5 0.8,4.4 -1,8.4 -4,9.2 z"
       class="st28" /><path
       style="fill:url(#SVGID_18_);stroke:#5e5a0f;stroke-width:2;stroke-miterlimit:10"
       inkscape:connector-curvature="0"
       id="path420"
       d="m 716.67703,-128.25761 0.4,-9.2 c 0,-0.8 4.8,-0.4 8.8,0 3,0.4 6.2,0.2 9.2,-0.4 l 18.6,-4.6 c 2,-0.2 8,4.8 6.8,6.6 -1,1.8 -4.2,1.4 -4.4,1.4 -0.4,0 -13.6,-2.8 -23.2,-0.4 -1.8,0.6 -16.4,8.4 -16.2,6.6 z"
       class="st29" /><path
       style="fill:url(#SVGID_19_);stroke:#5e5a0f;stroke-width:2;stroke-miterlimit:10"
       inkscape:connector-curvature="0"
       id="path431"
       d="m 697.07703,-128.05761 -0.4,-9.2 c 0,-0.8 -4.8,-0.4 -8.8,0 -3,0.4 -6.2,0.2 -9.2,-0.4 l -18.6,-4.6 c -2,-0.2 -8,4.8 -6.8,6.6 1,1.8 4.2,1.4 4.4,1.4 0.4,0 13.6,-2.8 23.2,-0.4 1.6,0.6 16.2,8.4 16.2,6.6 z"
       class="st30" /><g
       transform="matrix(2,0,0,2,-561.92297,-442.85761)"
       id="g542"><linearGradient
         gradientTransform="matrix(0.964,-0.3203,0.2746,1.0258,-9.4694,233.6316)"
         y2="101.1687"
         x2="573.91162"
         y1="68.689003"
         x1="573.91162"
         gradientUnits="userSpaceOnUse"
         id="SVGID_20_"><stop
           id="stop433"
           style="stop-color:#E7B300"
           offset="0" /><stop
           id="stop435"
           style="stop-color:#EDC609"
           offset="0.2979" /><stop
           id="stop437"
           style="stop-color:#FCF620"
           offset="0.8975" /><stop
           id="stop439"
           style="stop-color:#FFFF24"
           offset="1" /></linearGradient><path
         style="fill:url(#SVGID_20_);stroke:#5e5a0f;stroke-miterlimit:10"
         inkscape:connector-curvature="0"
         id="path442"
         d="m 553.6,131.6 c -0.9,4.6 8.3,16.5 14.5,20.3 10.1,6.2 5,-9.9 7.9,-13.6 5.3,-6.8 -0.6,-16.7 -7.8,-18.1 -7.2,-1.4 -12.9,2.8 -14.6,11.4 z"
         class="st31" /><linearGradient
         y2="157.10139"
         x2="634.74597"
         y1="86.270798"
         x1="634.74597"
         gradientUnits="userSpaceOnUse"
         id="SVGID_21_"><stop
           id="stop444"
           style="stop-color:#E7B300"
           offset="0" /><stop
           id="stop446"
           style="stop-color:#EDC609"
           offset="0.2979" /><stop
           id="stop448"
           style="stop-color:#FCF620"
           offset="0.8975" /><stop
           id="stop450"
           style="stop-color:#FFFF24"
           offset="1" /></linearGradient><path
         style="fill:url(#SVGID_21_);stroke:#5e5a0f;stroke-miterlimit:10"
         inkscape:connector-curvature="0"
         id="path453"
         d="m 673.2,150.8 c -0.4,-0.5 -0.9,-1 -1.3,-1.5 -0.5,1.3 -0.8,2.9 -0.7,4.8 0,0.4 -0.5,0.6 -0.7,0.3 -2.8,-2.6 -3.2,-3.1 -2.6,-8.2 -1.9,2 -5.3,3.8 -11.4,5.4 -0.2,0 -0.3,-0.2 -0.2,-0.3 1.8,-1.9 4.2,-7.8 2.3,-12.6 -0.8,-0.4 -1.5,-0.8 -2.3,-1.2 -0.5,-0.2 -1,-0.5 -1.4,-0.7 -2.1,4.5 -5.3,8.9 -9.8,15.6 -0.2,0.3 -0.6,0.1 -0.6,-0.2 0.4,-4.8 -1.9,-8.7 -5.4,-12.1 -3,6 -1.8,12.9 2.7,16.2 0.3,0.2 0.2,0.8 -0.3,0.7 -9.8,-0.9 -18,-10.2 -21.1,-22.9 -0.1,0 -0.2,0 -0.3,0.1 -4.6,5.5 -4.7,16.2 -2.5,19.8 0.3,0.5 -0.2,1 -0.7,0.9 -4.6,-1.6 -8,-7.8 -8.8,-15.7 -0.1,0 -0.1,0.1 -0.2,0.1 0,7.3 -2.1,13.5 -4.9,15.2 -0.7,0.4 -1.6,-0.1 -1.7,-0.9 -0.4,-2.7 -1.7,-5.1 -3.7,-6.5 -1,1 -2,2.1 -3,3.2 -3.2,-4.2 -5.5,-9.3 -6.4,-14.9 -3.3,-18.9 9.4,-36.8 28.2,-40.1 0.1,0 0.1,0 0.2,0 5.1,-4.2 11.4,-7.2 18.4,-8.4 21.7,-3.8 42.3,10.8 46.1,32.4 2.1,11.6 -1.1,22.9 -7.9,31.5 z"
         class="st32" /><linearGradient
         gradientTransform="matrix(-0.964,-0.3203,-0.2746,1.0258,1686.4222,233.6316)"
         y2="219.0318"
         x2="961.05353"
         y1="186.55209"
         x1="961.05353"
         gradientUnits="userSpaceOnUse"
         id="SVGID_22_"><stop
           id="stop455"
           style="stop-color:#E7B300"
           offset="0" /><stop
           id="stop457"
           style="stop-color:#EDC609"
           offset="0.2979" /><stop
           id="stop459"
           style="stop-color:#FCF620"
           offset="0.8975" /><stop
           id="stop461"
           style="stop-color:#FFFF24"
           offset="1" /></linearGradient><path
         style="fill:url(#SVGID_22_);stroke:#5e5a0f;stroke-miterlimit:10"
         inkscape:connector-curvature="0"
         id="path464"
         d="m 717.8,128.5 c 0.9,4.6 -8.3,16.5 -14.5,20.3 -10.1,6.2 -5,-9.9 -7.9,-13.6 -5.3,-6.8 0.6,-16.7 7.8,-18.1 7.2,-1.4 12.9,2.8 14.6,11.4 z"
         class="st33" /><linearGradient
         y2="136.645"
         x2="702.15631"
         y1="97.727303"
         x1="702.15631"
         gradientUnits="userSpaceOnUse"
         id="SVGID_23_"><stop
           id="stop466"
           style="stop-color:#E7B300"
           offset="0" /><stop
           id="stop468"
           style="stop-color:#EDC609"
           offset="0.2979" /><stop
           id="stop470"
           style="stop-color:#FCF620"
           offset="0.8975" /><stop
           id="stop472"
           style="stop-color:#FFFF24"
           offset="1" /></linearGradient><path
         style="fill:url(#SVGID_23_);stroke:#5e5a0f;stroke-miterlimit:10"
         inkscape:connector-curvature="0"
         id="path475"
         d="m 717.9,109 c 4.7,9.7 1.4,21.3 -7.2,25.9 -8.7,4.5 -19.5,0.3 -24.2,-9.4 -4.7,-9.7 -1.4,-21.3 7.2,-25.9 8.6,-4.6 19.5,-0.4 24.2,9.4 z"
         class="st34" /><linearGradient
         y2="138.9783"
         x2="568.17047"
         y1="100.0606"
         x1="568.17047"
         gradientUnits="userSpaceOnUse"
         id="SVGID_24_"><stop
           id="stop477"
           style="stop-color:#E7B300"
           offset="0" /><stop
           id="stop479"
           style="stop-color:#EDC609"
           offset="0.2979" /><stop
           id="stop481"
           style="stop-color:#FCF620"
           offset="0.8975" /><stop
           id="stop483"
           style="stop-color:#FFFF24"
           offset="1" /></linearGradient><path
         style="fill:url(#SVGID_24_);stroke:#5e5a0f;stroke-miterlimit:10"
         inkscape:connector-curvature="0"
         id="path486"
         d="m 552.5,111.3 c -4.7,9.7 -1.4,21.3 7.2,25.9 8.7,4.5 19.5,0.3 24.2,-9.4 4.7,-9.7 1.4,-21.3 -7.2,-25.9 -8.6,-4.6 -19.6,-0.3 -24.2,9.4 z"
         class="st35" /><linearGradient
         gradientTransform="matrix(0.6625,0.1892,-0.2215,0.7754,266.8041,-117.2838)"
         y2="178.1312"
         x2="553.1123"
         y1="178.1312"
         x1="529.4823"
         gradientUnits="userSpaceOnUse"
         id="SVGID_25_"><stop
           id="stop488"
           style="stop-color:#33360C"
           offset="0" /><stop
           id="stop490"
           style="stop-color:#354211"
           offset="1.429028e-02" /><stop
           id="stop492"
           style="stop-color:#3B6A21"
           offset="7.038032e-02" /><stop
           id="stop494"
           style="stop-color:#408D2F"
           offset="0.13" /><stop
           id="stop496"
           style="stop-color:#44A93B"
           offset="0.1928" /><stop
           id="stop498"
           style="stop-color:#48BF44"
           offset="0.2598" /><stop
           id="stop500"
           style="stop-color:#4ACF4A"
           offset="0.333" /><stop
           id="stop502"
           style="stop-color:#4CD84E"
           offset="0.4172" /><stop
           id="stop504"
           style="stop-color:#4CDB4F"
           offset="0.5369" /><stop
           id="stop506"
           style="stop-color:#5EC65A"
           offset="0.687" /><stop
           id="stop508"
           style="stop-color:#70B164"
           offset="0.8755" /><stop
           id="stop510"
           style="stop-color:#77A968"
           offset="1" /></linearGradient><path
         style="fill:url(#SVGID_25_);stroke:#202d1c;stroke-miterlimit:10"
         inkscape:connector-curvature="0"
         id="path513"
         d="m 597,114.1 -6.5,22.9 c -0.6,2.1 -2.6,3.5 -4.4,2.9 -1.2,-0.3 -2,-1.4 -2.3,-2.7 -0.1,0 -0.3,-0.1 -0.4,-0.1 l -1.7,-0.5 c -0.2,-0.1 -0.4,-0.1 -0.6,-0.3 -1,1 -2.3,1.4 -3.6,1 -2.1,-0.6 -3.2,-3 -2.5,-5.4 l 6.3,-21.9 c 0.7,-2.4 2.9,-3.9 5,-3.3 1,0.3 1.8,1 2.3,2 0.1,0.2 0.2,0.5 0.3,0.8 0.2,0 0.4,0 0.7,0.1 l 1.7,0.5 c 0.1,0 0.3,0.1 0.4,0.1 0.9,-1 2.2,-1.4 3.4,-1.1 0.9,0.3 1.6,0.9 2,1.8 0.2,1 0.2,2.1 -0.1,3.2 z"
         class="st36" /><linearGradient
         gradientTransform="matrix(-0.6625,0.1892,0.2215,0.7754,1380.5693,-117.2838)"
         y2="47.479301"
         x2="1079.7524"
         y1="47.479301"
         x1="1056.1224"
         gradientUnits="userSpaceOnUse"
         id="SVGID_26_"><stop
           id="stop515"
           style="stop-color:#33360C"
           offset="0" /><stop
           id="stop517"
           style="stop-color:#354211"
           offset="1.429028e-02" /><stop
           id="stop519"
           style="stop-color:#3B6A21"
           offset="7.038032e-02" /><stop
           id="stop521"
           style="stop-color:#408D2F"
           offset="0.13" /><stop
           id="stop523"
           style="stop-color:#44A93B"
           offset="0.1928" /><stop
           id="stop525"
           style="stop-color:#48BF44"
           offset="0.2598" /><stop
           id="stop527"
           style="stop-color:#4ACF4A"
           offset="0.333" /><stop
           id="stop529"
           style="stop-color:#4CD84E"
           offset="0.4172" /><stop
           id="stop531"
           style="stop-color:#4CDB4F"
           offset="0.5369" /><stop
           id="stop533"
           style="stop-color:#5EC65A"
           offset="0.687" /><stop
           id="stop535"
           style="stop-color:#70B164"
           offset="0.8755" /><stop
           id="stop537"
           style="stop-color:#77A968"
           offset="1" /></linearGradient><path
         style="fill:url(#SVGID_26_);stroke:#202d1c;stroke-miterlimit:10"
         inkscape:connector-curvature="0"
         id="path540"
         d="m 672.5,112.4 6.5,22.9 c 0.6,2.1 2.6,3.5 4.4,2.9 1.2,-0.3 2,-1.4 2.3,-2.7 0.1,0 0.3,-0.1 0.4,-0.1 l 1.7,-0.5 c 0.2,-0.1 0.4,-0.1 0.6,-0.3 1,1 2.3,1.4 3.6,1 2.1,-0.6 3.2,-3 2.5,-5.4 l -6.3,-21.9 c -0.7,-2.4 -2.9,-3.9 -5,-3.3 -1,0.3 -1.8,1 -2.3,2 -0.1,0.2 -0.2,0.5 -0.3,0.8 -0.2,0 -0.4,0 -0.7,0.1 l -1.7,0.5 c -0.1,0 -0.3,0.1 -0.4,0.1 -0.9,-1 -2.2,-1.4 -3.4,-1.1 -0.9,0.3 -1.6,0.9 -2,1.8 -0.1,1.1 -0.2,2.2 0.1,3.2 z"
         class="st37" /></g></g></svg>